<svg width="18" height="18" viewBox="0 0 18 18" fill="none" xmlns="http://www.w3.org/2000/svg">
<path d="M14.5501 11.1413C13.9456 11.0112 13.4674 11.2919 13.0439 11.537C12.6102 11.7896 11.7856 12.4586 11.313 12.2874C8.89299 11.291 6.61694 9.17283 5.63166 6.74314C5.45801 6.26038 6.12384 5.43052 6.37457 4.99174C6.61787 4.56698 6.89274 4.08423 6.76737 3.47517C6.65408 2.92785 5.18871 1.06325 4.67053 0.553359C4.3288 0.216551 3.97871 0.031307 3.61933 0.00136859C2.26819 -0.0566372 0.759167 1.74622 0.494508 2.17752C-0.16853 3.09719 -0.164815 4.32093 0.505652 5.80475C2.12146 9.79031 8.23274 15.8051 12.2332 17.4817C12.9715 17.8269 13.6466 18 14.253 18C14.8464 18 15.3748 17.8344 15.8289 17.506C16.1715 17.3086 18.0483 15.7247 17.999 14.3372C17.9693 13.9836 17.7845 13.6299 17.4521 13.2875C16.946 12.7645 15.0934 11.2554 14.5501 11.1413Z" fill="url(#paint0_linear_169_28892)"/>
<defs>
<linearGradient id="paint0_linear_169_28892" x1="-2.55249e-08" y1="-1.10526" x2="20.7793" y2="2.11418" gradientUnits="userSpaceOnUse">
<stop stop-color="#53E88B"/>
<stop offset="1" stop-color="#15BE77"/>
</linearGradient>
</defs>
</svg>
