<svg width="17" height="21" viewBox="0 0 17 21" fill="none" xmlns="http://www.w3.org/2000/svg">
<path fill-rule="evenodd" clip-rule="evenodd" d="M0 8.81776C0 4.21789 3.84388 0.5 8.49345 0.5C13.1561 0.5 17 4.21789 17 8.81776C17 11.1357 16.157 13.2876 14.7695 15.1116C13.2388 17.1235 11.3522 18.8765 9.22854 20.2524C8.74251 20.5704 8.30387 20.5944 7.77045 20.2524C5.63474 18.8765 3.74809 17.1235 2.2305 15.1116C0.841983 13.2876 0 11.1357 0 8.81776ZM5.69423 9.07675C5.69423 10.6177 6.95166 11.8297 8.49345 11.8297C10.0362 11.8297 11.3058 10.6177 11.3058 9.07675C11.3058 7.5478 10.0362 6.27683 8.49345 6.27683C6.95166 6.27683 5.69423 7.5478 5.69423 9.07675Z" fill="url(#paint0_linear_193_15)"/>
<defs>
<linearGradient id="paint0_linear_193_15" x1="-2.41069e-08" y1="-0.728068" x2="19.7534" y2="1.87336" gradientUnits="userSpaceOnUse">
<stop stop-color="#53E88B"/>
<stop offset="1" stop-color="#15BE77"/>
</linearGradient>
</defs>
</svg>
