<svg width="40" height="40" viewBox="0 0 40 40" fill="none" xmlns="http://www.w3.org/2000/svg">
<path d="M31.7833 8.21671C29.0486 5.46421 25.4393 3.75207 21.5777 3.37545C17.716 2.99883 13.8439 3.98134 10.6289 6.1536C7.41399 8.32586 5.05768 11.5517 3.96623 15.2751C2.87477 18.9984 3.11658 22.9859 4.64995 26.55C4.80977 26.8813 4.86221 27.2542 4.79995 27.6167L3.33329 34.6667C3.27678 34.937 3.28832 35.2171 3.36687 35.4818C3.44541 35.7466 3.58851 35.9876 3.78329 36.1834C3.94296 36.3419 4.13308 36.4664 4.34218 36.5495C4.55128 36.6326 4.77503 36.6724 4.99995 36.6667H5.33329L12.4666 35.2334C12.8292 35.1898 13.1968 35.2415 13.5333 35.3834C17.0975 36.9168 21.0849 37.1586 24.8083 36.0671C28.5316 34.9757 31.7575 32.6193 33.9297 29.4044C36.102 26.1895 37.0845 22.3174 36.7079 18.4557C36.3313 14.594 34.6191 10.9847 31.8666 8.25005L31.7833 8.21671ZM13.3333 21.6667C13.0036 21.6667 12.6814 21.569 12.4073 21.3858C12.1333 21.2027 11.9196 20.9424 11.7935 20.6379C11.6673 20.3333 11.6343 19.9982 11.6986 19.6749C11.763 19.3516 11.9217 19.0546 12.1548 18.8215C12.3879 18.5884 12.6848 18.4297 13.0081 18.3654C13.3314 18.3011 13.6665 18.3341 13.9711 18.4602C14.2756 18.5864 14.5359 18.8 14.7191 19.0741C14.9022 19.3482 15 19.6704 15 20C15 20.4421 14.8244 20.866 14.5118 21.1786C14.1992 21.4911 13.7753 21.6667 13.3333 21.6667V21.6667ZM20 21.6667C19.6703 21.6667 19.3481 21.569 19.074 21.3858C18.7999 21.2027 18.5863 20.9424 18.4602 20.6379C18.334 20.3333 18.301 19.9982 18.3653 19.6749C18.4296 19.3516 18.5884 19.0546 18.8214 18.8215C19.0545 18.5884 19.3515 18.4297 19.6748 18.3654C19.9981 18.3011 20.3332 18.3341 20.6378 18.4602C20.9423 18.5864 21.2026 18.8 21.3857 19.0741C21.5689 19.3482 21.6666 19.6704 21.6666 20C21.6666 20.4421 21.491 20.866 21.1785 21.1786C20.8659 21.4911 20.442 21.6667 20 21.6667ZM26.6666 21.6667C26.337 21.6667 26.0147 21.569 25.7407 21.3858C25.4666 21.2027 25.253 20.9424 25.1268 20.6379C25.0007 20.3333 24.9677 19.9982 25.032 19.6749C25.0963 19.3516 25.255 19.0546 25.4881 18.8215C25.7212 18.5884 26.0182 18.4297 26.3415 18.3654C26.6648 18.3011 26.9999 18.3341 27.3044 18.4602C27.609 18.5864 27.8693 18.8 28.0524 19.0741C28.2355 19.3482 28.3333 19.6704 28.3333 20C28.3333 20.4421 28.1577 20.866 27.8451 21.1786C27.5326 21.4911 27.1086 21.6667 26.6666 21.6667Z" fill="url(#paint0_linear_169_24214)"/>
<defs>
<linearGradient id="paint0_linear_169_24214" x1="3.29321" y1="1.24318" x2="41.9555" y2="7.24228" gradientUnits="userSpaceOnUse">
<stop stop-color="#53E88B"/>
<stop offset="1" stop-color="#15BE77"/>
</linearGradient>
</defs>
</svg>
