<svg width="40" height="40" viewBox="0 0 40 40" fill="none" xmlns="http://www.w3.org/2000/svg">
<path d="M33.3333 6.66669H6.66659C4.83325 6.66669 3.34992 8.16669 3.34992 10L3.33325 30C3.33325 31.8334 4.83325 33.3334 6.66659 33.3334H33.3333C35.1666 33.3334 36.6666 31.8334 36.6666 30V10C36.6666 8.16669 35.1666 6.66669 33.3333 6.66669ZM32.6666 13.75L20.8833 21.1167C20.3499 21.45 19.6499 21.45 19.1166 21.1167L7.33325 13.75C7.16613 13.6562 7.01978 13.5295 6.90307 13.3774C6.78635 13.2254 6.70169 13.0513 6.65421 12.8656C6.60673 12.68 6.59742 12.4866 6.62685 12.2972C6.65627 12.1078 6.72381 11.9264 6.82539 11.7639C6.92696 11.6013 7.06046 11.4611 7.2178 11.3517C7.37513 11.2422 7.55304 11.1659 7.74074 11.1272C7.92845 11.0885 8.12206 11.0883 8.30984 11.1266C8.49763 11.1649 8.67569 11.2409 8.83325 11.35L19.9999 18.3334L31.1666 11.35C31.3241 11.2409 31.5022 11.1649 31.69 11.1266C31.8778 11.0883 32.0714 11.0885 32.2591 11.1272C32.4468 11.1659 32.6247 11.2422 32.782 11.3517C32.9394 11.4611 33.0729 11.6013 33.1744 11.7639C33.276 11.9264 33.3436 12.1078 33.373 12.2972C33.4024 12.4866 33.3931 12.68 33.3456 12.8656C33.2982 13.0513 33.2135 13.2254 33.0968 13.3774C32.9801 13.5295 32.8337 13.6562 32.6666 13.75Z" fill="url(#paint0_linear_169_24231)"/>
<defs>
<linearGradient id="paint0_linear_169_24231" x1="3.33325" y1="5.02926" x2="41.3126" y2="12.3847" gradientUnits="userSpaceOnUse">
<stop stop-color="#53E88B"/>
<stop offset="1" stop-color="#15BE77"/>
</linearGradient>
</defs>
</svg>
