<svg width="25" height="25" viewBox="0 0 25 25" fill="none" xmlns="http://www.w3.org/2000/svg">
<path opacity="0.4" fill-rule="evenodd" clip-rule="evenodd" d="M16.8224 6.44541C16.8451 6.61204 16.8666 6.76899 16.878 6.97671L4.86261 18.9907H4.58472C2.82475 18.9907 1.54116 17.747 1.30297 15.8152C1.03831 13.8834 1.09125 10.5756 1.30297 8.81586C1.5544 6.98995 2.90415 5.73297 4.58472 5.73297H6.874L11.2408 2.1592C11.7702 1.71066 12.7097 1.28726 13.4375 1.27271C14.7608 1.27271 15.9782 2.20022 16.4149 3.68212C16.5869 4.30267 16.6531 4.92586 16.706 5.51995L16.8119 6.36807C16.8154 6.39422 16.8189 6.41993 16.8224 6.44541ZM15.6009 14.1643C15.7809 13.9884 16.1792 13.864 16.3592 13.909C16.8461 14.0334 16.9401 14.7306 16.9335 15.2784C16.911 16.8688 16.8567 17.975 16.772 18.659L16.7125 19.2227L16.7114 19.2332C16.6549 19.8002 16.5963 20.3869 16.4293 21.0129C15.9873 22.4921 14.8056 23.4527 13.4638 23.4527C13.4188 23.4527 13.3752 23.4527 13.3302 23.4514C12.5891 23.4514 11.7832 23.0068 11.3267 22.6191L9.7004 21.3608C9.08375 20.9017 9.26504 20.1674 9.61174 19.7427C9.87055 19.4266 12.9803 16.5726 14.6151 15.0722C15.1702 14.5627 15.5553 14.2093 15.6009 14.1643Z" fill="url(#paint0_linear_508_138)"/>
<path d="M24.1594 1.08723C23.6923 0.636047 22.9751 0.638693 22.5252 1.08856L1.08794 22.5232C0.636695 22.9744 0.636695 23.6929 1.09191 24.1652C1.3248 24.3809 1.61328 24.5 1.90573 24.5C2.20479 24.5 2.51179 24.3743 2.72484 24.1613L24.1607 2.72659C24.6133 2.27408 24.6133 1.54107 24.1594 1.08723Z" fill="url(#paint1_linear_508_138)"/>
<defs>
<linearGradient id="paint0_linear_508_138" x1="1.12378" y1="-0.0892246" x2="19.5879" y2="1.94993" gradientUnits="userSpaceOnUse">
<stop stop-color="#53E88B"/>
<stop offset="1" stop-color="#15BE77"/>
</linearGradient>
<linearGradient id="paint1_linear_508_138" x1="0.75" y1="-0.708333" x2="28.1671" y2="3.53955" gradientUnits="userSpaceOnUse">
<stop stop-color="#53E88B"/>
<stop offset="1" stop-color="#15BE77"/>
</linearGradient>
</defs>
</svg>
