<svg width="24" height="24" viewBox="0 0 24 24" fill="none" xmlns="http://www.w3.org/2000/svg">
<path d="M13.3571 6.45056C13.3068 5.96422 13.2543 5.45963 13.1254 4.95611C12.7741 3.75153 11.801 3.00001 10.7576 3.00001C10.1757 2.99786 9.43954 3.35644 9.0222 3.71932L5.56287 6.61697H3.75194C2.41918 6.61697 1.34751 7.6444 1.14513 9.12705C0.973161 10.5506 0.931217 13.2379 1.14513 14.8042C1.33073 16.3706 2.35416 17.383 3.75194 17.383H5.56287L9.08931 20.3236C9.45107 20.6382 10.0897 20.9989 10.6769 20.9989C10.7146 21 10.7482 21 10.7817 21C11.845 21 12.7814 20.2206 13.1327 19.0192C13.2659 18.5082 13.312 18.0293 13.3571 17.5666L13.4043 17.1082C13.5846 15.6213 13.5846 8.36908 13.4043 6.89288L13.3571 6.45056Z" fill="url(#paint0_linear_169_29308)"/>
<path opacity="0.4" d="M17.4066 6.49456C17.1182 6.06941 16.5468 5.96312 16.1284 6.25836C15.7142 6.55575 15.6114 7.14194 15.8998 7.56601C16.7019 8.74804 17.1434 10.3219 17.1434 12C17.1434 13.6769 16.7019 15.2519 15.8998 16.4339C15.6114 16.858 15.7142 17.4442 16.1294 17.7416C16.2846 17.8511 16.466 17.9091 16.6527 17.9091C16.9536 17.9091 17.2346 17.7577 17.4066 17.5054C18.4195 16.0131 18.9785 14.0581 18.9785 12C18.9785 9.94189 18.4195 7.98686 17.4066 6.49456Z" fill="url(#paint1_linear_169_29308)"/>
<path opacity="0.4" d="M20.5672 3.45726C20.2809 3.03319 19.7073 2.92475 19.29 3.22107C18.8758 3.51845 18.773 4.10464 19.0603 4.52871C20.4172 6.52776 21.1649 9.18169 21.1649 11.9999C21.1649 14.8192 20.4172 17.4731 19.0603 19.4722C18.773 19.8973 18.8758 20.4824 19.291 20.7798C19.4462 20.8893 19.6266 20.9473 19.8132 20.9473C20.1142 20.9473 20.3963 20.7959 20.5672 20.5436C22.1359 18.2343 22.9999 15.2003 22.9999 11.9999C22.9999 8.80164 22.1359 5.76657 20.5672 3.45726Z" fill="url(#paint2_linear_169_29308)"/>
<defs>
<linearGradient id="paint0_linear_169_29308" x1="1" y1="1.89474" x2="15.6525" y2="3.47625" gradientUnits="userSpaceOnUse">
<stop stop-color="#53E88B"/>
<stop offset="1" stop-color="#15BE77"/>
</linearGradient>
<linearGradient id="paint1_linear_169_29308" x1="15.7361" y1="5.36553" x2="19.562" y2="5.52816" gradientUnits="userSpaceOnUse">
<stop stop-color="#53E88B"/>
<stop offset="1" stop-color="#15BE77"/>
</linearGradient>
<linearGradient id="paint2_linear_169_29308" x1="18.8975" y1="1.95498" x2="23.7409" y2="2.12703" gradientUnits="userSpaceOnUse">
<stop stop-color="#53E88B"/>
<stop offset="1" stop-color="#15BE77"/>
</linearGradient>
</defs>
</svg>
